<?xml version="1.0" encoding="UTF-8" standalone="no"?><!DOCTYPE svg PUBLIC "-//W3C//DTD SVG 1.1//EN" "http://www.w3.org/Graphics/SVG/1.1/DTD/svg11.dtd"><svg width="100%" height="100%" viewBox="0 0 44 44" version="1.1" xmlns="http://www.w3.org/2000/svg" xmlns:xlink="http://www.w3.org/1999/xlink" xml:space="preserve" xmlns:serif="http://www.serif.com/" style="fill-rule:evenodd;clip-rule:evenodd;stroke-linejoin:round;stroke-miterlimit:2;"><g id="instagram"><path d="M41.979,36.073c-0.01,0.287 -0.02,0.574 -0.021,0.864l-0.012,0.625c-0.008,0.313 -0.014,0.623 -0.01,0.934c0.004,0.253 -0.096,0.497 -0.293,0.725c-0.201,0.229 -0.428,0.362 -0.676,0.393c-0.43,0.053 -0.876,0.09 -1.323,0.123l-0.445,0.035c-0.298,0.026 -0.601,0.049 -0.909,0.065c-0.237,0.011 -0.473,0.033 -0.709,0.052c-0.223,0.022 -0.447,0.041 -0.671,0.053c-0.192,0.01 -0.383,-0.004 -0.575,-0.014c-0.273,-0.015 -0.55,-0.029 -0.823,-0.011c-0.297,0.019 -0.588,0.07 -0.877,0.125c-0.176,0.033 -0.349,0.068 -0.527,0.086c-0.197,0.019 -0.394,0.021 -0.589,0.025c-0.287,0.006 -0.572,0.014 -0.853,0.049c-0.272,0.035 -0.54,0.084 -0.804,0.135c-0.203,0.037 -0.404,0.074 -0.604,0.102l-1.409,0.186c-0.219,0.031 -0.441,0.045 -0.664,0.058c-0.248,0.016 -0.496,0.032 -0.745,0.063l-0.287,0.039c-0.363,0.047 -0.729,0.096 -1.1,0.135l-0.405,0.043c-0.324,0.037 -0.65,0.072 -0.988,0.095l-1.365,0.112c-0.248,0.017 -0.496,0.052 -0.742,0.088c-0.203,0.029 -0.405,0.058 -0.605,0.072c-0.197,0.012 -0.396,0.004 -0.594,-0.002c-0.253,-0.01 -0.507,-0.018 -0.757,-0.002c-0.222,0.012 -0.445,0.016 -0.666,0.021c-0.229,0.004 -0.459,0.01 -0.687,0.022c-0.268,0.014 -0.534,0.058 -0.8,0.107c-0.18,0.035 -0.36,0.071 -0.541,0.08l-2.682,0.129c-0.224,0.01 -0.447,0.012 -0.671,0.012l-0.679,0.012c-0.213,0.008 -0.422,-0.004 -0.635,-0.016c-0.256,-0.014 -0.514,-0.025 -0.772,-0.019c-0.252,0.007 -0.503,0.031 -0.755,0.054c-0.214,0.02 -0.426,0.039 -0.639,0.045c-0.245,0.006 -0.49,0.024 -0.734,0.043c-0.218,0.016 -0.435,0.033 -0.651,0.037l-2.777,0.03c-0.203,-0.002 -0.382,-0.022 -0.571,-0.045c-0.26,-0.032 -0.521,-0.059 -0.779,-0.059l-0.03,0c-0.461,0.008 -0.814,-0.043 -1.11,-0.15c-0.333,-0.121 -0.649,-0.311 -0.966,-0.578c-0.3,-0.254 -0.535,-0.536 -0.72,-0.861c-0.215,-0.381 -0.341,-0.717 -0.396,-1.058l-0.093,-0.535c-0.047,-0.255 -0.094,-0.509 -0.126,-0.765c-0.027,-0.205 -0.028,-0.412 -0.032,-0.619c-0.003,-0.237 -0.008,-0.472 -0.032,-0.708l-0.067,-0.588c-0.03,-0.246 -0.062,-0.494 -0.081,-0.74c-0.018,-0.228 -0.048,-0.458 -0.079,-0.689c-0.029,-0.215 -0.059,-0.43 -0.073,-0.646l-0.075,-1.359c-0.014,-0.234 -0.039,-0.472 -0.065,-0.711c-0.022,-0.212 -0.047,-0.427 -0.059,-0.647c-0.012,-0.192 -0.009,-0.389 -0.007,-0.586c0.002,-0.258 0.004,-0.516 -0.013,-0.778c-0.018,-0.292 -0.048,-0.586 -0.077,-0.887l-0.061,-0.666c-0.018,-0.228 -0.023,-0.46 -0.028,-0.697c-0.007,-0.279 -0.014,-0.562 -0.036,-0.849c-0.023,-0.277 -0.069,-0.554 -0.116,-0.833c-0.04,-0.235 -0.081,-0.469 -0.099,-0.705c-0.016,-0.246 -0.013,-0.495 -0.01,-0.743c0.003,-0.264 0.005,-0.528 -0.007,-0.791l-0.042,-0.627c-0.023,-0.298 -0.044,-0.594 -0.051,-0.889c-0.012,-0.508 -0.009,-1.011 0.001,-1.507l0.005,-0.664c0,-0.261 0,-0.522 0.008,-0.78c0.007,-0.225 0.035,-0.448 0.06,-0.671c0.029,-0.249 0.058,-0.498 0.069,-0.744l0.09,-1.419c0.017,-0.268 0.009,-0.537 -0.001,-0.803c-0.008,-0.207 -0.017,-0.413 -0.003,-0.616c0.016,-0.212 0.059,-0.42 0.099,-0.628c0.05,-0.26 0.098,-0.52 0.121,-0.779c0.023,-0.263 0.024,-0.528 0.023,-0.789c0,-0.212 -0.002,-0.423 0.02,-0.632c0.022,-0.218 0.066,-0.434 0.108,-0.648c0.05,-0.249 0.098,-0.496 0.127,-0.745l0.183,-1.407c0.056,-0.424 0.151,-0.829 0.279,-1.241c0.125,-0.403 0.243,-0.801 0.432,-1.17c0.171,-0.333 0.399,-0.626 0.711,-1.039c0.254,-0.338 0.51,-0.668 0.82,-0.957l0.33,-0.328c0.208,-0.212 0.406,-0.413 0.602,-0.542c0.236,-0.157 0.506,-0.262 0.773,-0.371l0.384,-0.162c0.384,-0.17 0.779,-0.319 1.193,-0.423c0.405,-0.102 0.821,-0.178 1.25,-0.21c0.504,-0.039 1.013,-0.009 1.521,-0.037l0.702,-0.05c0.276,-0.024 0.553,-0.046 0.833,-0.058l1.537,-0.046c0.271,-0.008 0.541,-0.031 0.812,-0.056c0.245,-0.022 0.49,-0.044 0.737,-0.049l0.761,-0.029c0.266,-0.011 0.532,-0.023 0.8,-0.027c0.233,0.004 0.45,0.016 0.673,0.033c0.281,0.023 0.555,0.038 0.85,0.039c0.239,-0.004 0.485,0.003 0.729,0.008c0.27,0.006 0.538,0.01 0.808,0.009c0.272,-0.003 0.546,-0.014 0.818,-0.025l0.722,-0.022c0.281,-0.005 0.563,-0.024 0.845,-0.046c0.233,-0.017 0.467,-0.035 0.701,-0.04c0.222,-0.013 0.412,0.01 0.617,0.023c0.275,0.016 0.549,0.029 0.828,0.024c0.261,-0.009 0.524,-0.03 0.786,-0.053c0.213,-0.018 0.426,-0.037 0.637,-0.045c0.258,-0.008 0.512,-0.031 0.768,-0.055c0.215,-0.019 0.428,-0.04 0.641,-0.048l1.409,-0.057c0.232,-0.009 0.467,-0.01 0.693,-0.005c0.239,0 0.472,0.002 0.706,-0.004c0.239,-0.008 0.481,-0.003 0.723,-0.001l0.676,0.002l0.626,-0.018c0.258,-0.01 0.502,-0.019 0.767,-0.017c0.219,0.011 0.449,-0.008 0.673,-0.017c0.237,-0.01 0.473,-0.024 0.711,-0.014c0.416,0.011 0.87,0.134 1.269,0.241l0.197,0.053c0.389,0.103 0.756,0.202 1.033,0.355c0.236,0.132 0.474,0.362 0.726,0.604l0.256,0.244c0.318,0.294 0.59,0.612 0.928,1.124c0.225,0.334 0.436,0.65 0.547,0.964c0.125,0.347 0.17,0.776 0.223,1.274c0.025,0.237 0.043,0.475 0.061,0.714l0.22,2.16c0.028,0.266 0.071,0.529 0.117,0.794c0.038,0.218 0.077,0.435 0.096,0.653c0.022,0.224 0.027,0.451 0.033,0.677c0.008,0.26 0.016,0.519 0.039,0.782c0.024,0.258 0.067,0.516 0.108,0.774c0.037,0.222 0.074,0.446 0.094,0.675l0.135,1.456c0.018,0.229 0.026,0.457 0.034,0.687c0.009,0.258 0.019,0.517 0.039,0.772l0.207,2.919c0.025,0.361 0.06,0.723 0.095,1.085l0.045,0.479c0.02,0.233 0.03,0.468 0.037,0.702c0.012,0.288 0.022,0.577 0.049,0.867c0.029,0.281 0.074,0.561 0.121,0.838c0.037,0.235 0.078,0.467 0.1,0.701l0.074,0.685c0.033,0.281 0.065,0.565 0.09,0.848c0.023,0.257 0.029,0.516 0.035,0.774c0.006,0.254 0.012,0.508 0.029,0.76c0.018,0.234 0.043,0.468 0.069,0.7c0.029,0.272 0.06,0.541 0.07,0.809c0.012,0.256 -0.002,0.51 -0.014,0.761c-0.009,0.253 -0.021,0.507 -0.017,0.759l0.019,0.672c0.01,0.284 0.022,0.568 0.02,0.851l0.008,0.742c0.006,0.264 0.011,0.526 0.007,0.784l-0.021,2.216Zm2.013,-3.039l-0.008,-0.695c0.002,-0.309 -0.01,-0.62 -0.022,-0.931l-0.017,-0.631c-0.004,-0.211 0.008,-0.424 0.015,-0.639c0.016,-0.307 0.028,-0.62 0.016,-0.934c-0.014,-0.313 -0.047,-0.625 -0.082,-0.942c-0.023,-0.208 -0.047,-0.417 -0.061,-0.627c-0.015,-0.219 -0.021,-0.442 -0.027,-0.663c-0.006,-0.302 -0.014,-0.604 -0.041,-0.905c-0.025,-0.297 -0.06,-0.596 -0.094,-0.896l-0.07,-0.654c-0.029,-0.279 -0.074,-0.554 -0.119,-0.832c-0.039,-0.235 -0.08,-0.47 -0.102,-0.703c-0.023,-0.249 -0.033,-0.5 -0.043,-0.751c-0.009,-0.267 -0.019,-0.534 -0.043,-0.804l-0.046,-0.494c-0.034,-0.343 -0.067,-0.687 -0.09,-1.033l-0.209,-2.935c-0.018,-0.229 -0.026,-0.458 -0.033,-0.687c-0.01,-0.26 -0.02,-0.519 -0.041,-0.775l-0.137,-1.469c-0.024,-0.277 -0.067,-0.552 -0.112,-0.826c-0.034,-0.212 -0.069,-0.423 -0.088,-0.631c-0.02,-0.219 -0.026,-0.44 -0.032,-0.659c-0.007,-0.27 -0.017,-0.538 -0.041,-0.809c-0.027,-0.269 -0.072,-0.536 -0.117,-0.804c-0.037,-0.214 -0.076,-0.43 -0.098,-0.651l-0.216,-2.11c-0.02,-0.261 -0.039,-0.52 -0.071,-0.819c-0.058,-0.552 -0.119,-1.124 -0.324,-1.696c-0.195,-0.545 -0.498,-0.999 -0.862,-1.545c-0.328,-0.496 -0.701,-0.933 -1.137,-1.335l-0.226,-0.215c-0.316,-0.307 -0.677,-0.654 -1.144,-0.915c-0.494,-0.273 -1.022,-0.414 -1.675,-0.589c-0.484,-0.13 -1.087,-0.293 -1.743,-0.311c-0.279,-0.004 -0.56,0.004 -0.842,0.015c-0.196,0.008 -0.401,0.01 -0.589,0.016c-0.252,0 -0.56,0.008 -0.841,0.018l-0.587,0.017l-0.619,-0.002c-0.268,0 -0.532,-0.006 -0.805,0.001c-0.213,0.006 -0.425,0.006 -0.638,0.004c-0.256,0.001 -0.517,-0.001 -0.775,0.007l-1.415,0.057c-0.248,0.009 -0.498,0.031 -0.748,0.055c-0.218,0.019 -0.437,0.041 -0.658,0.049c-0.244,0.009 -0.49,0.029 -0.734,0.05c-0.226,0.019 -0.453,0.039 -0.679,0.045c-0.203,0.014 -0.427,-0.007 -0.642,-0.02c-0.258,-0.017 -0.508,-0.031 -0.781,-0.026c-0.269,0.005 -0.54,0.025 -0.809,0.045c-0.242,0.018 -0.484,0.037 -0.727,0.04l-0.769,0.025c-0.254,0.01 -0.509,0.019 -0.766,0.022c-0.245,0.005 -0.491,-0.003 -0.736,-0.007c-0.269,-0.006 -0.532,-0.01 -0.801,-0.009c-0.215,-0.002 -0.446,-0.017 -0.668,-0.033c-0.287,-0.023 -0.587,-0.048 -0.859,-0.04c-0.287,0.004 -0.573,0.017 -0.859,0.03l-0.713,0.026c-0.292,0.006 -0.584,0.031 -0.873,0.058c-0.232,0.02 -0.461,0.041 -0.693,0.047l-1.562,0.048c-0.306,0.013 -0.61,0.037 -0.914,0.062l-0.651,0.048c-0.519,0.029 -1.047,0.001 -1.558,0.038c-0.509,0.039 -1.027,0.124 -1.588,0.265c-0.478,0.12 -0.973,0.295 -1.513,0.534l-0.336,0.141c-0.389,0.16 -0.774,0.326 -1.119,0.555c-0.368,0.244 -0.662,0.542 -0.921,0.804l-0.276,0.274c-0.423,0.398 -0.762,0.834 -1.132,1.326c-0.294,0.388 -0.583,0.779 -0.806,1.215c-0.256,0.497 -0.412,1.002 -0.567,1.502c-0.165,0.531 -0.279,1.041 -0.347,1.563l-0.187,1.433c-0.023,0.197 -0.063,0.392 -0.102,0.588c-0.054,0.276 -0.108,0.553 -0.137,0.833c-0.029,0.277 -0.03,0.558 -0.03,0.84c0.001,0.202 0.003,0.405 -0.015,0.607c-0.018,0.194 -0.056,0.387 -0.094,0.58c-0.055,0.283 -0.106,0.568 -0.128,0.856c-0.02,0.277 -0.013,0.558 -0.003,0.839c0.009,0.201 0.018,0.402 0.005,0.606l-0.092,1.446c-0.009,0.203 -0.034,0.406 -0.057,0.609c-0.032,0.277 -0.063,0.554 -0.072,0.836c-0.01,0.28 -0.01,0.562 -0.01,0.845l-0.005,0.626c-0.009,0.523 -0.012,1.055 -0.001,1.591c0.008,0.329 0.032,0.66 0.056,0.99l0.039,0.584c0.012,0.221 0.009,0.442 0.006,0.664c-0.004,0.303 -0.006,0.607 0.015,0.909c0.022,0.301 0.07,0.6 0.121,0.897c0.037,0.222 0.076,0.442 0.094,0.661c0.019,0.246 0.025,0.49 0.03,0.732c0.007,0.274 0.013,0.545 0.034,0.81l0.065,0.701c0.027,0.279 0.053,0.553 0.071,0.82c0.014,0.212 0.011,0.425 0.009,0.632c-0.002,0.246 -0.004,0.489 0.011,0.725c0.014,0.25 0.041,0.497 0.067,0.741c0.021,0.207 0.044,0.412 0.056,0.615l0.076,1.369c0.017,0.263 0.052,0.525 0.087,0.785c0.026,0.193 0.052,0.384 0.067,0.579c0.023,0.277 0.056,0.554 0.089,0.828l0.063,0.541c0.018,0.182 0.019,0.362 0.022,0.546c0.005,0.279 0.012,0.558 0.047,0.836c0.037,0.291 0.09,0.582 0.143,0.872l0.087,0.496c0.093,0.572 0.299,1.136 0.629,1.724c0.3,0.527 0.694,1 1.171,1.401c0.499,0.424 1.015,0.726 1.571,0.93c0.521,0.191 1.116,0.275 1.81,0.271c0.174,-0.008 0.372,0.022 0.56,0.045c0.261,0.031 0.523,0.059 0.785,0.059l0.045,0l2.793,-0.03c0.252,-0.006 0.505,-0.023 0.758,-0.043c0.212,-0.015 0.423,-0.031 0.636,-0.037c0.257,-0.006 0.515,-0.029 0.774,-0.054c0.209,-0.02 0.418,-0.04 0.628,-0.045c0.199,-0.012 0.403,0.005 0.606,0.017c0.271,0.012 0.546,0.026 0.814,0.018l0.623,-0.012c0.244,0 0.488,-0.004 0.733,-0.012l2.7,-0.132c0.27,-0.012 0.539,-0.059 0.809,-0.108c0.178,-0.033 0.358,-0.07 0.539,-0.08l0.625,-0.02c0.245,-0.003 0.491,-0.009 0.737,-0.023c0.193,-0.01 0.385,-0.002 0.579,0.004c0.261,0.006 0.521,0.016 0.786,0c0.256,-0.018 0.509,-0.053 0.764,-0.09c0.198,-0.027 0.395,-0.057 0.59,-0.07l1.372,-0.112c0.362,-0.025 0.716,-0.064 1.068,-0.103l0.394,-0.043c0.389,-0.041 0.772,-0.092 1.151,-0.141l0.282,-0.037c0.205,-0.027 0.41,-0.039 0.615,-0.051c0.275,-0.017 0.549,-0.035 0.82,-0.074l1.406,-0.185c0.232,-0.034 0.461,-0.076 0.69,-0.119c0.231,-0.043 0.461,-0.086 0.691,-0.115c0.211,-0.027 0.424,-0.029 0.639,-0.033c0.252,-0.004 0.505,-0.01 0.752,-0.037c0.231,-0.021 0.463,-0.064 0.697,-0.109c0.207,-0.039 0.418,-0.08 0.628,-0.094c0.196,-0.012 0.395,0.002 0.594,0.012c0.262,0.013 0.518,0.031 0.775,0.013c0.252,-0.011 0.505,-0.033 0.757,-0.056c0.211,-0.018 0.422,-0.037 0.627,-0.049c0.328,-0.014 0.653,-0.041 0.974,-0.067l0.43,-0.033c0.484,-0.037 0.96,-0.078 1.42,-0.135c0.743,-0.091 1.414,-0.459 1.939,-1.064c0.525,-0.601 0.795,-1.315 0.785,-2.066c-0.004,-0.286 0.002,-0.571 0.011,-0.856l0.011,-0.662c0.001,-0.271 0.011,-0.54 0.019,-0.81l0.024,-2.254c0.003,-0.284 -0.002,-0.566 -0.008,-0.851" style="fill-rule:nonzero;"/><path d="M28.683,25.991c-0.099,0.357 -0.255,0.694 -0.431,1.04c-0.16,0.313 -0.347,0.592 -0.556,0.863c-0.211,0.278 -0.426,0.542 -0.678,0.775c-0.257,0.238 -0.546,0.431 -0.856,0.635c-0.305,0.199 -0.604,0.4 -0.934,0.55l-0.335,0.156c-0.231,0.109 -0.461,0.224 -0.703,0.296c-0.199,0.059 -0.41,0.077 -0.621,0.098c-0.17,0.018 -0.341,0.035 -0.509,0.063c-0.162,0.027 -0.323,0.06 -0.484,0.093c-0.216,0.045 -0.431,0.096 -0.651,0.104c-0.347,0.012 -0.69,-0.027 -1.032,-0.067l-0.731,-0.072c-0.322,-0.025 -0.644,-0.047 -0.957,-0.127c-0.372,-0.092 -0.72,-0.25 -1.065,-0.4l-0.193,-0.085c-0.398,-0.17 -0.792,-0.393 -1.192,-0.649c-0.376,-0.238 -0.754,-0.494 -1.109,-0.802c-0.511,-0.439 -0.888,-0.822 -1.191,-1.202c-0.276,-0.35 -0.549,-0.713 -0.766,-1.109c-0.225,-0.414 -0.404,-0.826 -0.533,-1.224c-0.119,-0.369 -0.205,-0.787 -0.262,-1.283c-0.045,-0.392 -0.049,-0.819 -0.009,-1.301l0,-0.002c0.027,-0.348 0.122,-0.679 0.211,-1.007l0.15,-0.589c0.066,-0.275 0.125,-0.552 0.243,-0.804c0.173,-0.37 0.413,-0.707 0.659,-1.062c0.244,-0.354 0.494,-0.707 0.793,-1.013c0.301,-0.308 0.617,-0.61 0.963,-0.863c0.395,-0.29 0.852,-0.557 1.357,-0.792c0.392,-0.181 0.854,-0.286 1.494,-0.431c0.393,-0.09 0.773,-0.118 1.143,-0.14c0.135,-0.008 0.268,-0.012 0.397,-0.012c0.255,0 0.502,0.015 0.746,0.042c0.17,0.019 0.339,0.029 0.506,0.039c0.249,0.015 0.484,0.029 0.657,0.076c0.239,0.066 0.455,0.179 0.667,0.284c0.136,0.068 0.273,0.134 0.41,0.194c0.381,0.167 0.739,0.34 1.053,0.529c0.36,0.217 0.682,0.42 0.943,0.619c0.373,0.287 0.623,0.541 0.824,0.744c0.293,0.289 0.57,0.615 0.837,0.965c0.258,0.337 0.512,0.689 0.771,1.138c0.202,0.348 0.411,0.701 0.569,1.083c0.142,0.342 0.23,0.705 0.364,1.228c0.098,0.382 0.178,0.766 0.217,1.155c0.039,0.385 0.072,0.77 0.043,1.156c-0.028,0.375 -0.119,0.744 -0.219,1.111m1.854,-4.077c-0.117,-0.457 -0.235,-0.913 -0.415,-1.341c-0.191,-0.46 -0.437,-0.893 -0.722,-1.382c-0.264,-0.456 -0.565,-0.878 -0.87,-1.283c-0.328,-0.428 -0.668,-0.824 -1.075,-1.226c-0.168,-0.17 -0.488,-0.493 -0.963,-0.858c-0.313,-0.239 -0.698,-0.486 -1.127,-0.745c-0.384,-0.231 -0.816,-0.442 -1.283,-0.647l-0.328,-0.156c-0.322,-0.16 -0.657,-0.318 -1.017,-0.417c-0.376,-0.105 -0.746,-0.126 -1.072,-0.145c-0.135,-0.008 -0.27,-0.016 -0.404,-0.031c-0.481,-0.054 -0.97,-0.071 -1.48,-0.038c-0.477,0.029 -0.965,0.072 -1.62,0.221c-0.568,0.127 -1.155,0.261 -1.74,0.532c-0.627,0.29 -1.199,0.625 -1.7,0.994c-0.434,0.318 -0.834,0.692 -1.21,1.078c-0.4,0.41 -0.729,0.87 -1.02,1.29c-0.295,0.425 -0.592,0.862 -0.815,1.338c-0.172,0.372 -0.276,0.774 -0.373,1.18l-0.137,0.536c-0.12,0.444 -0.236,0.895 -0.275,1.366c-0.049,0.616 -0.043,1.171 0.018,1.697c0.072,0.625 0.185,1.167 0.345,1.663c0.167,0.519 0.396,1.044 0.68,1.567c0.293,0.537 0.647,1.006 0.955,1.394c0.382,0.482 0.844,0.953 1.451,1.473c0.431,0.373 0.889,0.692 1.344,0.977c0.531,0.34 1.014,0.602 1.654,0.878c0.447,0.195 0.903,0.389 1.379,0.508c0.415,0.105 0.847,0.146 1.282,0.181l0.669,0.067c0.376,0.041 0.754,0.082 1.131,0.082c0.07,0 0.14,-0.002 0.211,-0.004c0.328,-0.014 0.652,-0.078 0.975,-0.147l0.392,-0.076c0.133,-0.021 0.268,-0.035 0.401,-0.049c0.332,-0.035 0.662,-0.074 0.98,-0.168c0.343,-0.103 0.671,-0.253 0.995,-0.408l0.299,-0.139c0.428,-0.194 0.816,-0.446 1.222,-0.711c0.385,-0.252 0.756,-0.512 1.097,-0.823c0.339,-0.311 0.628,-0.663 0.912,-1.032c0.281,-0.367 0.535,-0.748 0.75,-1.173c0.187,-0.367 0.422,-0.861 0.577,-1.412c0.117,-0.43 0.244,-0.946 0.287,-1.495c0.037,-0.501 0,-1.003 -0.049,-1.505c-0.049,-0.491 -0.148,-0.97 -0.311,-1.611" style="fill-rule:nonzero;"/><path d="M35.152,9.49c-0.268,0.489 -0.578,0.845 -0.898,1.032c-0.27,0.156 -0.708,0.193 -1.138,0.218c-0.361,0.024 -0.899,0.03 -1.259,-0.15c-0.34,-0.169 -0.619,-0.435 -0.789,-0.75c-0.076,-0.14 -0.088,-0.394 -0.103,-0.742c-0.012,-0.257 0.027,-0.507 0.125,-0.786c0.082,-0.232 0.197,-0.519 0.373,-0.674c0.128,-0.111 0.334,-0.216 0.548,-0.326c0.144,-0.073 0.283,-0.145 0.412,-0.221l0.001,-0.001c0.399,-0.236 0.817,-0.468 1.145,-0.49c0.016,-0.001 0.031,-0.002 0.045,-0.002c0.241,0 0.546,0.12 0.977,0.383c0.338,0.206 0.532,0.378 0.641,0.572c0.182,0.329 0.274,0.651 0.262,0.926c-0.014,0.28 -0.129,0.621 -0.342,1.011m0.478,-4.217c-0.562,-0.342 -1.339,-0.73 -2.192,-0.668c-0.769,0.051 -1.425,0.406 -2.032,0.765c-0.094,0.056 -0.197,0.108 -0.303,0.162c-0.287,0.146 -0.644,0.328 -0.958,0.604c-0.525,0.46 -0.779,1.052 -0.941,1.517c-0.182,0.521 -0.26,1.022 -0.233,1.619c0.02,0.435 0.045,0.975 0.336,1.516c0.364,0.675 0.953,1.24 1.659,1.592c0.6,0.299 1.238,0.371 1.796,0.371c0.164,0 0.323,-0.007 0.469,-0.015c0.669,-0.038 1.376,-0.108 2.028,-0.486c0.636,-0.37 1.205,-0.993 1.646,-1.802c0.365,-0.669 0.556,-1.282 0.585,-1.879c0.027,-0.648 -0.15,-1.336 -0.515,-1.992c-0.367,-0.655 -0.912,-1.042 -1.345,-1.304" style="fill-rule:nonzero;"/></g></svg>
