<?xml version="1.0" encoding="UTF-8"?>
<svg width="100px" height="100px" viewBox="0 0 100 100" version="1.1" xmlns="http://www.w3.org/2000/svg" xmlns:xlink="http://www.w3.org/1999/xlink">
    <title>twitch</title>
    <g id="twitch" stroke="none" stroke-width="1" fill="none" fill-rule="evenodd">
        <path d="M29.6038821,10.3710979 C30.225343,10.3866847 30.875926,10.4344777 31.5419613,10.4881855 C32.1944122,10.5407047 32.8604476,10.5944124 33.5526891,10.6093475 L36.9507862,10.7013157 C37.5996141,10.7170154 38.2256884,10.7581014 38.8291218,10.7972065 C39.3483882,10.8335108 39.849542,10.8682305 40.334762,10.8764606 C40.870386,10.8822562 41.3851796,10.8132244 41.8784081,10.7559943 C42.5008019,10.6826878 43.0995646,10.6187209 43.6722062,10.6186296 L45.4367713,10.6589386 C45.9899137,10.6731112 46.5200192,10.6898311 47.0220781,10.6881274 L50.3773835,10.721598 C51.1100952,10.7172597 51.7904222,10.7379966 52.4343258,10.7578283 L53.7640749,10.7874728 C54.5531906,10.7903506 55.3004495,10.8283504 56.0495763,10.8710764 L57.2082182,10.9268163 C57.5378962,10.9396895 57.8829414,10.9333745 58.2508255,10.9267762 C58.920143,10.9168917 59.6396664,10.9068367 60.3897393,10.9648259 C60.9536245,11.0126675 61.5351818,11.0932055 62.1344556,11.1798563 C62.5826303,11.2464434 63.0423235,11.3117568 63.5105916,11.3572878 L64.8400021,11.4690333 C65.4339831,11.5118743 66.0345582,11.5575736 66.6333506,11.6236496 C67.0964964,11.6755767 67.557689,11.6976745 68.0186836,11.7220365 C68.6002686,11.7501045 69.1793915,11.7802385 69.7485528,11.8460035 C71.0311822,11.997003 72.2190056,12.3450348 73.4184327,12.7168959 C74.5665783,13.0751448 75.7896088,13.4901363 76.9342762,14.0967544 C78.0024739,14.6647426 78.9216407,15.3976422 79.7294139,16.047791 C81.0797779,17.1195614 81.942119,18.0847559 82.6649349,18.923673 L83.2515078,19.5727206 C83.8456653,20.2133061 84.5166609,20.9404634 85.0462953,21.8491729 C85.5912691,22.7911641 85.9133451,23.7775338 86.1975814,24.6488039 L86.4382891,25.3656927 C86.8285154,26.4857836 87.2235253,27.6815796 87.4177414,29.0080999 C87.5991078,30.2468025 87.545123,31.4375376 87.4947036,32.5875193 C87.4538753,33.4714152 87.4440626,34.1572608 87.4311083,34.8268616 L87.2923334,38.4991954 C87.2545871,39.1392503 87.2186236,39.7589285 87.1982253,40.3571544 C87.1784788,41.0261609 87.2156452,41.6704884 87.2485944,42.2847887 C87.2829025,42.9357103 87.3127953,43.5588688 87.2973214,44.1529626 C87.2808293,44.8108469 87.2015373,45.4563926 87.1238299,46.0838257 C87.0641202,46.5576977 87.0052029,47.0225132 86.9954158,47.4733759 C86.9824317,48.0129338 87.0132575,48.547199 87.0405455,49.0697475 C87.0713435,49.6564827 87.0984058,50.2337653 87.090035,50.7988223 C87.2058122,53.4504839 87.2665056,55.2455823 87.2721152,56.1841174 L87.2722191,56.4289625 C87.2719866,56.4658854 87.2716292,56.5008659 87.2711468,56.5339041 C87.2598624,57.2104953 87.2357858,57.8768416 87.2108316,58.5271413 L87.1565974,60.1901062 C87.1438966,60.752503 87.1887882,61.3085314 87.228076,61.8503811 C87.2783178,62.5277922 87.3254181,63.1889587 87.3117843,63.8402488 C87.2727746,65.3813496 86.9126896,66.8373247 86.6416621,67.7969 C86.3185629,68.9344324 85.7926593,70.095287 84.9974175,71.4401857 C84.2795208,72.6572482 83.3304304,73.5962847 82.4933258,74.4287668 C81.6512968,75.2653809 80.6591612,76.2531238 79.3807869,76.9922459 C78.2200873,77.6640954 77.0784907,78.3262092 75.7352464,78.685505 C74.6066359,78.9905737 73.5048793,78.9626247 72.5327695,78.9391742 L68.6422086,78.9478497 C68.2382973,78.9490146 67.831302,79.0115077 67.4228348,79.0647464 C66.7854699,79.152713 66.1423032,79.2287649 65.499079,79.2272439 C64.8885424,79.2171756 64.2701656,79.1402605 63.652383,79.0565533 C63.228717,78.9966732 62.8054472,78.932265 62.3792913,78.9269209 C61.9576635,78.921973 61.5341402,78.9647688 61.1060887,79.0071684 C60.4824212,79.0689564 59.8548197,79.1235561 59.2263685,79.1096391 C58.8908274,79.1012186 58.5551279,79.0860301 58.2184692,79.0683078 L57.871942,79.4371704 C57.4658706,79.8997221 57.0231356,80.4062122 56.5208416,80.8875738 C55.9033094,81.483793 55.2043323,82.1219683 54.4508686,82.7897977 C54.2899074,82.9291608 53.9693975,83.1681554 53.5156292,83.4913358 C53.0143305,83.8459777 52.3030061,84.3487685 51.4631237,85.0119653 C50.8255439,85.513868 50.0792646,86.0454472 49.2580255,86.6340338 L48.4729792,87.1919259 C48.1723731,87.4086173 47.8715921,87.663134 47.5601417,87.9215616 C47.0071508,88.3808399 46.4166306,88.8645249 45.7512041,89.304985 C45.0088131,89.7930208 44.1970592,90.2793704 43.3433943,90.7927011 L42.8076876,91.1168684 C42.2093993,91.4789823 41.5672714,91.8126265 40.9032349,92.1591422 L39.7512957,92.7687324 C38.5673398,93.5987132 37.4352474,93.1345154 37.0156386,92.8918274 C36.2893727,92.5204517 35.4859698,91.5542894 35.5293887,90.3440541 C35.4752911,89.9349542 35.5053959,89.2417965 35.544735,88.5302463 C35.5669337,88.0704269 35.5953215,87.6010772 35.5707341,87.1298439 C35.5291075,86.2383479 35.5174846,85.3256877 35.5144276,84.3914913 L35.5031685,83.6660516 C35.4999427,83.2412097 35.4399295,82.8120087 35.3798176,82.3746139 C35.289764,81.6494929 35.2046616,80.9167476 35.224173,80.1814815 C35.2395653,79.3738912 35.2713524,78.5495062 35.311436,77.7147833 L29.8635657,77.2183051 C28.2583338,77.0778655 26.9864285,76.7521358 25.8689023,76.2003646 C24.4916568,75.5140818 23.5021589,74.489853 22.6850717,73.5810901 C21.8112122,72.6171693 20.9295403,71.5339318 20.4073437,70.1490586 C19.9673355,68.9721399 19.7686764,67.6703264 19.7881294,66.0659165 L19.8104469,65.0024512 C19.8271648,64.2898329 19.8439955,63.5498476 19.8305157,62.7912405 L20.9074858,57.1487419 C20.8945468,56.6707955 20.8486372,56.1785574 20.7987935,55.679131 C20.7435997,55.0583218 20.6891982,54.4284563 20.6678803,53.7855154 C20.6519681,53.1590172 20.6770074,52.5338205 20.6960468,51.8989732 C20.7124558,51.3984989 20.7290628,50.8957605 20.7260854,50.382183 C20.7171656,49.9365279 20.6699545,49.4852414 20.6256018,49.0273607 C20.5830509,48.5749609 20.7555994,47.2285609 21.1432474,44.9881606 C21.1535908,44.4746679 21.4509022,32.2556951 21.4642373,30.5328832 L21.4645214,30.3857816 C21.4643643,30.3688397 21.4641025,30.3557793 21.4637325,30.3467414 C21.4395286,29.7628646 21.4157209,29.1744596 21.4130822,28.5787811 C21.4114914,28.0493551 21.3925803,27.5092881 21.3719993,26.9622309 C21.3542767,26.4085794 21.3326202,25.8477396 21.3272083,25.2837581 C21.3279945,24.7271632 21.3450254,24.1674267 21.3622544,23.605426 C21.3799647,23.0640002 21.4003352,22.5182443 21.3912727,21.9699134 C21.3817289,21.4010076 21.4118629,20.8218848 21.4403271,20.2357716 C21.4669808,19.7225051 21.4938326,19.2069746 21.4823932,18.6858126 C21.4755116,18.2950896 21.4853562,17.9217999 21.5168511,17.5618114 C21.6178725,16.4071311 21.914512,15.4155754 22.4150613,14.5445229 C23.1038082,13.3477243 24.1517811,12.3215197 25.4645127,11.5808406 C26.5129434,10.9927066 27.9265404,10.3247315 29.6038821,10.3710979 Z M29.4785316,14.9069787 C28.9138707,14.8940798 28.2292178,15.2357084 27.696682,15.5336103 C27.091668,15.8776435 26.6414612,16.3036629 26.3561082,16.8011404 C26.1147057,17.213488 26.0148666,17.8070451 26.0202528,18.6060094 C26.0326272,19.220791 26.00572,19.8412615 25.9746807,20.4568077 C25.9500078,20.9474334 25.9236651,21.4310687 25.9320758,21.908619 C25.9387336,22.5365889 25.921675,23.1487954 25.9004844,23.7560776 C25.8818114,24.2563538 25.8654025,24.7568282 25.8726248,25.2479629 L25.9101976,26.8003266 C25.9334111,27.3955238 25.9524926,27.9857967 25.9557255,28.574683 C25.9527882,29.1037128 25.9774159,29.6305915 26.0005719,30.1482157 L26.0011839,30.1699018 L26.0013217,30.3351306 C25.9926285,31.4942139 25.8406784,37.5206448 25.5454716,48.4144232 C25.5281852,48.8988509 25.5709533,49.3748442 25.6075234,49.843451 C25.6543404,50.4817786 25.1070282,53.034705 25.0914691,53.603696 C25.0688345,54.1492538 24.8314806,55.8452333 24.8489199,56.3760458 C24.8633029,56.9157166 24.2729005,57.6403467 24.3203672,58.1669421 C24.3734098,58.7601862 24.4249808,59.3441758 24.4407226,59.9204681 L24.5487005,63.301837 C24.5683505,64.1203005 24.5482376,64.9238781 24.5305016,65.7002868 L24.5121458,66.7184706 C24.4977238,67.7438427 24.6015687,68.5126371 24.8430112,69.1428967 C25.0793314,69.7795524 25.5678695,70.4017718 26.2296107,71.1304008 C26.7977878,71.7550248 27.4079919,72.3947328 28.0698419,72.730969 C28.6628068,73.0201133 29.4181614,73.2002687 30.4483173,73.2903956 L36.8946312,73.8749077 C37.4704995,73.916164 38.0475287,73.9963058 38.6215014,74.0853059 C39.1194858,74.1562508 39.6150081,74.2292617 40.1206901,74.2643775 L40.1652384,74.3403939 L39.8439941,78.0122331 C39.8062466,78.778195 39.776158,79.534112 39.7609554,80.2768702 C39.752023,80.7913734 39.8236926,81.298602 39.8877379,81.8008793 C39.9650721,82.4120535 40.0353517,83.0132264 40.0425561,83.6113768 L40.0520078,84.3437725 C40.0600921,85.2243255 40.0697864,86.0815349 40.1101527,86.920724 C40.1166069,87.0902203 40.1199172,87.2603849 40.1181776,87.4299799 C40.2352457,87.3623793 40.3523138,87.2947786 40.4655698,87.2247023 L41.0044204,86.8998668 C41.7998853,86.4219083 42.5622026,85.9657823 43.2545876,85.5130201 C43.7718032,85.1714247 44.2242124,84.7877435 44.6542422,84.4301778 C45.0536988,84.0988261 45.4406786,83.7783413 45.8244383,83.5045439 L46.6200554,82.9345472 C47.3775738,82.3940071 48.0669896,81.9040878 48.6539937,81.4425087 C49.5700738,80.7203986 50.3426433,80.1733734 50.8895664,79.7860323 C51.147692,79.6013719 51.3427652,79.4679018 51.4563933,79.3763879 C51.7043479,79.1560862 51.9477028,78.9374071 52.1848619,78.7216231 C54.637987,76.237973 56.0396098,75.0030986 56.3897306,75.0169999 L57.9095494,75.0906502 C58.4454567,75.1192847 58.9807697,75.1547115 59.5137335,75.1648373 C59.9576058,75.1762942 60.4022982,75.1262248 60.8465944,75.0806835 C61.4400366,75.0253768 62.0357428,74.9702681 62.6236387,74.9783556 C63.2389016,74.9865559 63.8455619,75.0670087 64.451826,75.1519897 C64.8779541,75.2098037 65.3034881,75.27441 65.7273799,75.2795561 C66.1514698,75.282438 66.5747098,75.2168033 66.9971576,75.1602249 C67.6088253,75.0791358 68.2198987,75.0048389 68.8268977,75.0031906 L72.8271247,74.9927026 C73.5533275,75.0106089 74.2363147,75.0270158 74.7292876,74.8944768 C75.5022694,74.6906164 76.2955683,74.2284528 77.1317996,73.7449498 C78.0017088,73.2415792 78.6239836,72.6481011 79.4284859,71.8492692 C80.1784246,71.1004174 80.8455273,70.4378562 81.2686186,69.722007 C81.8629557,68.7177125 82.2400285,67.9020181 82.4522771,67.1449085 C82.7806969,65.998716 82.9296067,65.1311201 82.9513895,64.3345328 C82.9617985,63.824408 82.9203318,63.3074631 82.8815253,62.7861882 C82.8701971,62.6378975 82.8365633,62.3477426 82.7909998,61.9771583 L82.7312613,61.4977827 C82.5602302,60.1374679 82.3095378,58.2051916 82.3191792,57.7140444 L82.3471634,53.40446 C82.354205,52.9328244 82.3254176,52.4534914 82.3015544,51.9700264 C82.2697937,51.3421417 82.2388253,50.7052007 82.2477328,50.0557785 C82.2608574,49.4363836 82.3377725,48.8180068 82.4140081,48.1813193 C82.4223186,48.1182601 82.4391217,47.9440113 82.4608423,47.7038695 L82.5260693,46.9605077 C82.5887659,46.231748 82.6608774,45.365129 82.7003086,44.8939954 L82.717106,44.6938548 C82.7216675,44.6397731 82.7251262,44.5991463 82.7272874,44.5744436 C82.7427378,44.3978455 82.75366,44.2208512 82.757988,44.0409985 C82.7705482,43.5584387 82.7394114,43.0538047 82.7125196,42.526728 C82.6721541,41.7885828 82.6345618,41.0187406 82.6616651,40.2134932 C82.6807045,39.5786459 82.7177713,38.9202803 82.757017,38.2370098 L82.8886056,34.7511227 C82.9007953,34.0381082 82.9164375,33.3117074 82.9470508,32.5706465 C82.998631,31.4595503 83.0533548,30.5472117 82.9231887,29.6620441 C82.7877299,28.7330667 82.4659371,27.7695359 82.1505128,26.8635975 L81.8829748,26.0622305 C81.6453235,25.3364835 81.4199553,24.6528764 81.114865,24.1242745 C80.8435101,23.6533779 80.3928968,23.1713611 79.9199538,22.6577323 L79.2274207,21.8899068 C78.4982087,21.0458672 77.8707971,20.3681513 77.183757,19.8243844 C76.2286759,19.0586844 75.5624086,18.5121721 74.8058912,18.1106183 C73.9885546,17.6740852 73.0090265,17.3442769 72.0716106,17.0546554 C71.0431502,16.7365359 70.1201963,16.4641496 69.2192058,16.3579463 C68.7494659,16.3031609 68.2724247,16.2796765 67.7953835,16.256192 C67.2411655,16.2282369 66.6869475,16.2002818 66.1357008,16.1383655 C65.5931142,16.0817697 65.0400847,16.0402301 64.4965077,15.9949547 L63.0650156,15.8765596 C62.5290231,15.8228221 62.0016057,15.7493022 61.4857067,15.6745085 C60.9877222,15.6035636 60.5035203,15.5315431 60.0324895,15.4915123 C59.4318187,15.446907 58.8581867,15.4583188 58.3234402,15.4685697 C57.8689269,15.4744331 57.4393184,15.4824754 57.0345297,15.4675937 L55.8034373,15.4055152 C55.1314872,15.3672599 54.4593391,15.3312687 53.7500604,15.3285314 L52.2927306,15.2968508 C51.7012969,15.2770467 51.0800341,15.2591958 50.4067826,15.261892 L47.0311006,15.2266387 C46.487694,15.2315692 45.9100429,15.2106896 45.3066946,15.1966874 L43.6444091,15.1607639 C43.2520163,15.1606551 42.8433511,15.2161578 42.4122432,15.2674157 C41.732257,15.3470906 41.0160455,15.4235961 40.2754659,15.4135576 C39.7102108,15.407451 39.12489,15.3699305 38.5241168,15.3264953 C37.9865397,15.2908704 37.4355762,15.251793 36.8661891,15.240762 L33.440725,15.1486809 C32.6688445,15.1313411 31.916378,15.0746345 31.1912785,15.0180407 C30.5978918,14.9684075 30.0292118,14.9232173 29.4785316,14.9069787 Z M73.7461273,30.1887228 C74.1923055,30.2368387 74.3862117,30.3433329 74.676871,30.5036957 C74.9675303,30.6640585 75.6570909,31.5980751 75.5659671,32.6988795 C75.5253678,33.1893316 75.5986722,34.2168211 75.5659671,34.6119089 C75.4137216,36.4510837 75.0406451,37.3717808 74.9409613,38.575993 C74.8893609,39.199343 74.8991011,39.5599087 74.8219155,40.4923353 C74.7867261,40.9174351 74.8665173,41.1484585 74.8219155,41.687263 C74.6945266,43.2261616 74.8919365,44.6669079 74.8219155,45.5127839 C74.7857126,45.9501267 74.7328034,46.3119934 74.6700336,46.6649973 L74.6139758,46.9669552 C74.449208,47.8251572 74.2378188,48.7433394 74.0778639,50.6756465 C74.0384863,51.15134 73.8356891,51.5743179 73.5292331,51.8939568 C73.1265181,52.3139955 72.5447979,52.5555811 71.9196871,52.5038349 C70.8188828,52.4127112 70.0003749,51.4464625 70.0914987,50.3456581 C70.308287,47.7267848 70.724189,46.8580639 70.8355503,45.5127839 C70.9152937,44.5494582 70.6803128,43.232593 70.8355503,41.3572747 C70.9792023,39.6219117 70.8355503,39.6156974 70.8355503,37.6377414 C70.8355503,35.6597855 71.5796019,35.3756946 71.5796019,33.9277502 C71.5796019,32.4798059 71.4755801,33.6255073 71.5796019,32.3688912 C71.6707256,31.2680868 72.4001186,30.497943 72.8500338,30.3433329 C73.299949,30.1887228 73.299949,30.140607 73.7461273,30.1887228 Z M52.9684444,29.0126481 C54.0727797,29.0353917 54.9495831,29.9490697 54.9268395,31.053405 C54.9152746,31.6149478 54.9358811,31.9979231 54.9268395,32.4369473 C54.8837156,34.5308641 54.8344752,35.5382322 54.801605,37.134274 C54.7860653,37.8888168 54.5817162,38.7547088 54.5556396,40.0208829 C54.5366555,40.942672 54.7071549,41.72038 54.694349,42.34218 C54.6878071,42.6598294 54.7056084,43.1471006 54.7285455,43.6553201 L54.7524832,44.165016 C54.7807479,44.7549595 54.8072886,45.3059623 54.801605,45.5819368 C54.776704,46.7910281 54.6779942,48.1169539 54.5556396,49.0773394 C54.4387202,49.9950625 53.619218,51.0584781 52.5148826,51.0357345 C51.4105473,51.0129908 50.7193439,50.4009853 50.7420875,49.29665 C50.7591593,48.4677181 50.7301414,47.9567755 50.7420875,47.3767226 C50.7592527,46.5432553 50.742177,46.4071851 50.7384972,46.0710886 L50.7381049,45.862532 C50.7386078,45.7828046 50.7398399,45.6910709 50.7420875,45.5819368 C50.752589,45.0720293 50.9276875,43.2597536 50.8276771,42.5117911 C50.7276666,41.7638287 50.7206478,40.3302712 50.7420875,39.2892457 C50.7836976,37.2688343 50.9066608,37.0198497 50.9276875,35.9988785 C50.9446919,35.1732143 50.8043428,34.3432874 50.8276771,33.2102729 C50.8398397,32.6197046 50.9101478,31.8226994 50.9276875,30.9710431 C50.9483635,29.9671019 51.7053489,29.1512037 52.6725152,29.0282432 L52.8191008,29.0150593 L52.9684444,29.0126481 Z" fill="#000000" fill-rule="nonzero"></path>
    </g>
</svg>