<?xml version="1.0" encoding="UTF-8" standalone="no"?><!DOCTYPE svg PUBLIC "-//W3C//DTD SVG 1.1//EN" "http://www.w3.org/Graphics/SVG/1.1/DTD/svg11.dtd"><svg width="100%" height="100%" viewBox="0 0 44 44" version="1.1" xmlns="http://www.w3.org/2000/svg" xmlns:xlink="http://www.w3.org/1999/xlink" xml:space="preserve" xmlns:serif="http://www.serif.com/" style="fill-rule:evenodd;clip-rule:evenodd;stroke-linejoin:round;stroke-miterlimit:2;"><g id="twitter"><path d="M3.046,37.375c0.192,0.152 0.393,0.312 0.618,0.455c0.197,0.123 0.418,0.224 0.643,0.329l0.469,0.229c0.188,0.097 0.369,0.197 0.545,0.297c0.28,0.156 0.55,0.308 0.827,0.416c0.388,0.15 0.773,0.246 1.133,0.337l0.349,0.09c0.556,0.148 1.057,0.243 1.492,0.312c0.291,-0.027 0.758,-0.045 1.216,-0.07c0.298,-0.018 0.592,-0.045 0.882,-0.071l0.512,-0.044c0.224,-0.019 0.446,-0.029 0.666,-0.039c0.247,-0.012 0.491,-0.021 0.73,-0.047c0.234,-0.025 0.464,-0.072 0.691,-0.117c0.232,-0.045 0.462,-0.09 0.69,-0.121c0.264,-0.035 0.532,-0.045 0.796,-0.053c0.203,-0.006 0.405,-0.009 0.597,-0.041c0.475,-0.078 0.935,-0.162 1.373,-0.248l0.384,-0.076c0.336,-0.064 0.662,-0.127 0.973,-0.199c0.332,-0.076 0.65,-0.168 0.952,-0.254l0.377,-0.106c0.237,-0.064 0.463,-0.136 0.683,-0.207c0.215,-0.068 0.424,-0.134 0.631,-0.19l1.312,-0.367c0.459,-0.135 0.888,-0.264 1.291,-0.397l0.54,-0.166c0.248,-0.074 0.49,-0.144 0.715,-0.232c0.25,-0.096 0.473,-0.221 0.69,-0.34c0.157,-0.084 0.309,-0.167 0.465,-0.243c0.154,-0.076 0.317,-0.149 0.479,-0.219c0.224,-0.099 0.451,-0.193 0.653,-0.326c0.346,-0.221 0.688,-0.469 1.023,-0.74c0.245,-0.198 0.454,-0.425 0.662,-0.646l0.377,-0.388c0.277,-0.274 0.517,-0.569 0.751,-0.852l0.392,-0.464c0.27,-0.318 0.527,-0.619 0.746,-0.926l0.34,-0.465c0.193,-0.264 0.377,-0.508 0.52,-0.747c0.329,-0.546 0.573,-0.989 0.721,-1.276c0.131,-0.254 0.217,-0.512 0.303,-0.76c0.068,-0.201 0.137,-0.397 0.217,-0.585l0.195,-0.453c0.131,-0.291 0.258,-0.576 0.355,-0.871c0.074,-0.214 0.154,-0.425 0.236,-0.636c0.096,-0.246 0.191,-0.492 0.271,-0.754l0.09,-0.304c0.096,-0.325 0.211,-0.718 0.36,-1.15c0.058,-0.177 0.109,-0.371 0.162,-0.571c0.076,-0.283 0.154,-0.577 0.258,-0.871c0.091,-0.259 0.205,-0.51 0.323,-0.766c0.094,-0.203 0.189,-0.409 0.265,-0.623c0.077,-0.215 0.141,-0.434 0.204,-0.652c0.078,-0.267 0.156,-0.534 0.25,-0.791l0.527,-1.41c0.109,-0.295 0.223,-0.573 0.327,-0.835l0.225,-0.568c0.23,-0.617 0.361,-1.091 0.412,-1.273l0.092,-0.327l0.296,-0.289c0.219,-0.202 0.377,-0.315 0.534,-0.427c0.112,-0.082 0.225,-0.163 0.432,-0.349c0.205,-0.182 0.297,-0.286 0.389,-0.389c0.129,-0.147 0.26,-0.294 0.549,-0.553l0.676,-0.597c-0.207,-0.005 -0.415,0.006 -0.629,0.017c-0.274,0.013 -0.555,0.024 -0.829,0.02c-0.167,-0.005 -0.347,-0.017 -0.534,-0.031c-0.258,-0.016 -0.533,-0.04 -0.82,-0.03c-0.23,0.006 -0.459,0.035 -0.684,0.062c-0.241,0.031 -0.477,0.059 -0.702,0.069c-0.826,0.034 -1.311,-0.009 -1.604,-0.081l0,0.005l-0.408,-0.086l-0.331,-0.424c-0.173,-0.271 -0.23,-0.606 -0.156,-0.941c0.084,-0.392 0.346,-0.665 0.975,-1.323l0.15,-0.158c0.102,-0.106 0.203,-0.227 0.312,-0.354c0.177,-0.209 0.369,-0.431 0.582,-0.644c0.166,-0.166 0.345,-0.329 0.525,-0.493c0.149,-0.135 0.301,-0.272 0.444,-0.412c0.176,-0.178 0.366,-0.341 0.551,-0.5c0.147,-0.127 0.291,-0.25 0.42,-0.379c0.346,-0.346 0.649,-0.663 0.874,-0.911c0.156,-0.174 0.297,-0.378 0.44,-0.579l0.24,-0.335l-0.26,0.117c-0.131,0.061 -0.264,0.138 -0.396,0.215c-0.281,0.161 -0.566,0.318 -0.867,0.426c-0.328,0.119 -0.654,0.211 -0.965,0.298l-0.309,0.089c-0.307,0.089 -0.609,0.147 -0.894,0.201l-0.399,0.08c-0.431,0.098 -0.815,0.171 -1.149,0.228l-0.344,0.174l-0.536,-0.203c-0.338,-0.17 -0.676,-0.306 -1.004,-0.438c-0.329,-0.133 -0.509,-0.216 -0.685,-0.298c-0.205,-0.094 -0.402,-0.19 -0.605,-0.253c-0.258,-0.08 -0.516,-0.124 -0.761,-0.169l-0.459,-0.088c-0.443,-0.097 -0.851,-0.176 -1.229,-0.224c-0.463,-0.058 -0.873,-0.069 -1.219,-0.079c-0.311,-0.009 -0.491,-0.023 -0.624,-0.034c-0.174,-0.015 -0.186,-0.014 -0.488,0.033c-0.442,0.08 -0.885,0.22 -1.298,0.414c-0.555,0.259 -0.959,0.49 -1.238,0.708c-0.476,0.376 -0.756,0.762 -0.877,0.927c-0.253,0.327 -0.578,0.738 -0.844,1.332c-0.177,0.395 -0.294,0.849 -0.347,1.349c-0.029,0.261 -0.074,0.509 -0.12,0.75c-0.04,0.215 -0.082,0.42 -0.092,0.619c-0.025,0.488 -0.035,0.937 -0.018,1.355c0.012,0.295 0.069,0.577 0.121,0.85l0.079,0.448c0.058,0.375 0.157,0.738 0.255,1.108l0.08,0.371c0.03,0.427 -0.176,0.976 -0.839,1.161c-0.383,0.237 -1.005,0.457 -1.943,0.342c-0.487,-0.062 -1.027,-0.182 -1.563,-0.347l-0.389,-0.115c-0.35,-0.1 -0.709,-0.205 -1.054,-0.342c-0.297,-0.118 -0.58,-0.27 -0.857,-0.42c-0.159,-0.087 -0.316,-0.174 -0.474,-0.247c-0.203,-0.092 -0.403,-0.173 -0.594,-0.25c-0.272,-0.11 -0.531,-0.217 -0.759,-0.332c-0.506,-0.256 -0.664,-0.368 -0.841,-0.493c-0.094,-0.066 -0.197,-0.138 -0.418,-0.263c-0.239,-0.134 -0.46,-0.27 -0.67,-0.397l-0.471,-0.283c-0.191,-0.107 -0.375,-0.202 -0.552,-0.292c-0.219,-0.112 -0.428,-0.219 -0.622,-0.333c-0.368,-0.218 -0.695,-0.431 -1.012,-0.637l-0.508,-0.319c-0.258,-0.157 -0.515,-0.315 -0.769,-0.502l-0.221,-0.145c-0.238,-0.159 -0.247,-0.163 -0.795,-0.447l-0.389,-0.207c-0.229,-0.124 -0.482,-0.26 -0.765,-0.399c-0.147,-0.072 -0.309,-0.125 -0.479,-0.182c-0.24,-0.083 -0.492,-0.17 -0.741,-0.287c-0.219,-0.101 -0.45,-0.199 -0.69,-0.302l-0.812,-0.361c-0.018,0.088 -0.036,0.177 -0.052,0.268c-0.03,0.181 -0.035,0.372 -0.044,0.568c-0.01,0.258 -0.023,0.522 -0.06,0.785c-0.064,0.435 -0.117,0.883 -0.17,1.342c-0.024,0.218 -0.062,0.439 -0.1,0.661c-0.039,0.222 -0.08,0.447 -0.098,0.673c-0.018,0.229 -0.011,0.459 -0.008,0.69c0.005,0.218 0.008,0.436 0,0.652c-0.007,0.217 -0.028,0.433 -0.048,0.646c-0.023,0.229 -0.047,0.458 -0.043,0.686c0.006,0.445 0.044,0.885 0.08,1.313l0.032,0.459c0.018,0.284 0.033,0.564 0.082,0.832c0.048,0.264 0.145,0.512 0.236,0.752l0.153,0.426c0.162,0.491 0.275,0.83 0.42,1.071c0.119,0.198 0.398,0.66 0.805,1.288c0.121,0.187 0.26,0.388 0.407,0.602l0.459,0.674c0.126,0.189 0.269,0.377 0.416,0.572c0.166,0.219 0.336,0.442 0.498,0.68l0.97,1.439c0.167,0.24 0.311,0.465 0.446,0.673c0.167,0.261 0.319,0.5 0.493,0.726c0.269,0.348 0.58,0.735 0.948,1.15c0.183,0.207 0.396,0.406 0.619,0.617l0.781,0.77c0.228,0.235 0.465,0.483 0.731,0.717c0.153,0.135 0.302,0.278 0.453,0.422c0.212,0.203 0.429,0.414 0.672,0.603c0.337,0.259 0.522,0.66 0.49,1.066l-0.044,0.54l-0.543,0.352c-0.269,0.144 -0.546,0.279 -0.828,0.414l-0.511,0.25c-0.28,0.14 -0.572,0.273 -0.867,0.41l-0.479,0.22c-0.176,0.084 -0.35,0.177 -0.525,0.273c-0.262,0.143 -0.529,0.287 -0.807,0.41c-0.268,0.117 -0.549,0.209 -0.834,0.299c-0.195,0.061 -0.391,0.123 -0.582,0.199c-0.419,0.174 -0.852,0.352 -1.311,0.527l-1.309,0.509c-0.223,0.082 -0.432,0.182 -0.632,0.276c-0.084,0.039 -0.166,0.078 -0.247,0.115m5.955,4.452c-0.681,-0.088 -1.251,-0.199 -1.885,-0.367l-0.328,-0.086c-0.432,-0.108 -0.893,-0.228 -1.36,-0.407c-0.361,-0.141 -0.715,-0.334 -1.08,-0.537l-0.894,-0.463c-0.301,-0.141 -0.59,-0.281 -0.853,-0.445c-0.309,-0.195 -0.583,-0.41 -0.843,-0.619l-0.626,-0.474c-0.292,-0.211 -0.563,-0.41 -0.794,-0.618l-0.208,-0.19l-0.079,-0.271c-0.278,-0.944 0.663,-1.255 1.019,-1.372c0.217,-0.073 0.521,-0.174 0.871,-0.305c0.161,-0.061 0.328,-0.141 0.503,-0.223c0.249,-0.117 0.509,-0.238 0.784,-0.34l1.296,-0.505c0.44,-0.168 0.855,-0.337 1.212,-0.484c0.298,-0.121 0.542,-0.201 0.787,-0.277c0.216,-0.069 0.431,-0.135 0.633,-0.225c0.226,-0.099 0.443,-0.219 0.657,-0.334c0.209,-0.115 0.416,-0.226 0.626,-0.325l0.502,-0.232c0.272,-0.124 0.54,-0.247 0.799,-0.377l0.182,-0.09c-0.099,-0.094 -0.196,-0.186 -0.295,-0.274c-0.305,-0.267 -0.581,-0.552 -0.845,-0.823l-0.717,-0.709c-0.268,-0.254 -0.522,-0.496 -0.743,-0.746c-0.4,-0.45 -0.74,-0.872 -1.033,-1.251c-0.211,-0.273 -0.394,-0.556 -0.593,-0.866c-0.124,-0.194 -0.255,-0.399 -0.408,-0.619l-0.982,-1.454c-0.139,-0.207 -0.289,-0.403 -0.433,-0.592c-0.174,-0.231 -0.343,-0.452 -0.492,-0.677l-0.438,-0.644c-0.158,-0.23 -0.307,-0.446 -0.439,-0.648c-0.423,-0.656 -0.714,-1.137 -0.825,-1.321c-0.276,-0.457 -0.428,-0.918 -0.576,-1.366l-0.171,-0.484c-0.131,-0.35 -0.261,-0.711 -0.331,-1.097c-0.062,-0.343 -0.088,-0.701 -0.11,-1.065l-0.028,-0.415c-0.041,-0.473 -0.082,-0.96 -0.088,-1.452c-0.004,-0.301 0.022,-0.604 0.051,-0.907c0.018,-0.176 0.036,-0.351 0.042,-0.528c0.006,-0.177 0.002,-0.358 -0.001,-0.539c-0.005,-0.297 -0.01,-0.593 0.013,-0.887c0.024,-0.29 0.072,-0.576 0.121,-0.859c0.032,-0.182 0.065,-0.362 0.084,-0.542c0.056,-0.482 0.111,-0.949 0.178,-1.402c0.027,-0.195 0.034,-0.391 0.042,-0.583c0.012,-0.282 0.026,-0.559 0.071,-0.822c0.052,-0.302 0.12,-0.589 0.186,-0.862c0.043,-0.176 0.084,-0.345 0.116,-0.507l0.09,-0.467l0.484,-0.327c0.306,-0.164 0.661,-0.176 1.005,-0.032c0.263,0.11 0.514,0.23 0.758,0.347l0.98,0.44c0.26,0.112 0.509,0.218 0.744,0.327c0.184,0.085 0.371,0.147 0.549,0.208c0.253,0.087 0.494,0.173 0.711,0.279c0.306,0.151 0.584,0.3 0.835,0.434l0.359,0.193c0.681,0.353 0.691,0.362 0.986,0.559l0.251,0.167c0.249,0.181 0.458,0.307 0.668,0.435l0.428,0.267c0.422,0.275 0.728,0.473 1.069,0.675c0.16,0.094 0.332,0.181 0.514,0.274c0.202,0.103 0.413,0.211 0.63,0.335l0.525,0.314c0.192,0.115 0.394,0.239 0.611,0.361c0.311,0.176 0.454,0.278 0.587,0.371c0.124,0.087 0.236,0.164 0.59,0.343c0.182,0.092 0.39,0.175 0.608,0.262c0.22,0.089 0.449,0.182 0.679,0.289c0.198,0.09 0.396,0.197 0.597,0.307c0.207,0.112 0.417,0.229 0.638,0.318c0.284,0.112 0.58,0.195 0.867,0.278l0.428,0.125c0.434,0.135 0.852,0.227 1.223,0.274c0.144,0.019 0.267,0.018 0.368,0.014c-0.059,-0.232 -0.109,-0.466 -0.146,-0.703l-0.069,-0.385c-0.07,-0.366 -0.137,-0.743 -0.153,-1.142c-0.019,-0.475 -0.009,-0.984 0.018,-1.534c0.014,-0.285 0.066,-0.581 0.125,-0.89c0.036,-0.191 0.074,-0.388 0.097,-0.595c0.076,-0.708 0.248,-1.363 0.509,-1.95c0.368,-0.821 0.809,-1.38 1.022,-1.649c0.185,-0.254 0.594,-0.817 1.29,-1.365c0.406,-0.319 0.923,-0.62 1.626,-0.948c0.568,-0.266 1.178,-0.459 1.808,-0.573c0.515,-0.082 0.673,-0.079 0.986,-0.056c0.111,0.009 0.261,0.021 0.519,0.028c0.4,0.012 0.876,0.027 1.413,0.095c0.435,0.056 0.898,0.144 1.404,0.255l0.386,0.074c0.326,0.059 0.662,0.121 1.002,0.226c0.285,0.089 0.565,0.216 0.852,0.349c0.145,0.068 0.293,0.137 0.447,0.199c0.375,0.151 0.68,0.275 0.964,0.405c0.301,-0.052 0.641,-0.115 1.016,-0.202c0.152,-0.035 0.314,-0.065 0.481,-0.097c0.223,-0.042 0.459,-0.084 0.698,-0.154l0.332,-0.095c0.267,-0.075 0.548,-0.153 0.829,-0.254c0.193,-0.07 0.371,-0.177 0.547,-0.279c0.187,-0.108 0.373,-0.212 0.562,-0.299l1.216,-0.549c0.648,-0.293 1.735,-0.785 2.423,-0.027c0.657,0.726 0.13,1.676 -0.217,2.304c-0.203,0.363 -0.434,0.768 -0.725,1.161l-0.213,0.296c-0.187,0.267 -0.378,0.534 -0.588,0.769c-0.246,0.271 -0.573,0.608 -0.942,0.98c-0.162,0.165 -0.345,0.324 -0.535,0.485c-0.147,0.129 -0.302,0.26 -0.448,0.404c-0.162,0.162 -0.334,0.318 -0.506,0.473c-0.154,0.141 -0.311,0.281 -0.453,0.426c-0.176,0.174 -0.33,0.356 -0.476,0.528c-0.004,0.005 -0.008,0.01 -0.011,0.014c0.003,0 0.007,-0.001 0.013,-0.001c0.284,-0.035 0.579,-0.07 0.872,-0.078c0.33,-0.012 0.692,0.013 1.011,0.035l0.447,0.025c0.241,0.006 0.457,-0.005 0.68,-0.016c0.352,-0.019 0.7,-0.032 1.034,-0.006c0.516,0.039 1.008,0.103 1.482,0.163l0.214,0.027c0.391,0 0.832,0.323 1.014,0.813c0.183,0.494 0.058,1.029 -0.316,1.362c-0.291,0.261 -0.453,0.374 -0.617,0.487c-0.112,0.078 -0.225,0.156 -0.426,0.337l-0.999,0.881c-0.205,0.182 -0.297,0.286 -0.389,0.389c-0.129,0.148 -0.26,0.294 -0.549,0.554c-0.286,0.258 -0.444,0.371 -0.6,0.483c-0.069,0.049 -0.135,0.097 -0.223,0.168c-0.084,0.29 -0.215,0.712 -0.404,1.222l-0.246,0.622c-0.098,0.243 -0.203,0.5 -0.302,0.773l-0.528,1.405c-0.078,0.217 -0.142,0.441 -0.207,0.665c-0.076,0.258 -0.152,0.517 -0.242,0.769c-0.095,0.267 -0.215,0.527 -0.332,0.783c-0.092,0.201 -0.183,0.396 -0.254,0.596c-0.085,0.239 -0.147,0.483 -0.21,0.718c-0.064,0.246 -0.129,0.483 -0.203,0.704c-0.138,0.401 -0.244,0.765 -0.332,1.067l-0.096,0.321c-0.093,0.31 -0.207,0.605 -0.32,0.895c-0.07,0.186 -0.142,0.369 -0.205,0.555c-0.117,0.351 -0.267,0.693 -0.421,1.042l-0.181,0.416c-0.063,0.146 -0.116,0.303 -0.17,0.465c-0.116,0.334 -0.239,0.678 -0.416,1.022c-0.161,0.313 -0.428,0.799 -0.785,1.392c-0.173,0.287 -0.39,0.584 -0.625,0.902l-0.318,0.438c-0.252,0.352 -0.545,0.698 -0.854,1.061l-0.373,0.445c-0.276,0.332 -0.561,0.675 -0.887,0.997l-0.327,0.342c-0.27,0.283 -0.545,0.571 -0.856,0.824c-0.394,0.32 -0.798,0.611 -1.204,0.871c-0.291,0.187 -0.607,0.332 -0.928,0.472l-0.792,0.388c-0.293,0.16 -0.595,0.322 -0.923,0.449c-0.271,0.106 -0.566,0.195 -0.871,0.285l-0.488,0.151c-0.422,0.136 -0.87,0.273 -1.348,0.412l-1.336,0.374c-0.186,0.053 -0.372,0.111 -0.564,0.172c-0.246,0.078 -0.499,0.158 -0.762,0.23l-0.358,0.102c-0.332,0.094 -0.681,0.191 -1.045,0.277c-0.335,0.076 -0.685,0.145 -1.049,0.215l-0.375,0.072c-0.459,0.09 -0.938,0.178 -1.435,0.26c-0.278,0.047 -0.566,0.059 -0.86,0.066c-0.195,0.006 -0.393,0.01 -0.591,0.038c-0.191,0.025 -0.379,0.063 -0.569,0.1c-0.284,0.055 -0.571,0.111 -0.865,0.143c-0.28,0.029 -0.565,0.043 -0.852,0.056c-0.197,0.01 -0.397,0.018 -0.597,0.034l-0.491,0.042c-0.312,0.03 -0.629,0.059 -0.951,0.077c-0.476,0.025 -0.957,0.047 -1.449,0.062" style="fill-rule:nonzero;"/></g></svg>