<?xml version="1.0" encoding="UTF-8" standalone="no"?><!DOCTYPE svg PUBLIC "-//W3C//DTD SVG 1.1//EN" "http://www.w3.org/Graphics/SVG/1.1/DTD/svg11.dtd"><svg width="100%" height="100%" viewBox="0 0 44 44" version="1.1" xmlns="http://www.w3.org/2000/svg" xmlns:xlink="http://www.w3.org/1999/xlink" xml:space="preserve" xmlns:serif="http://www.serif.com/" style="fill-rule:evenodd;clip-rule:evenodd;stroke-linejoin:round;stroke-miterlimit:2;"><g id="youtube"><path d="M41.98,27.231c-0.017,0.255 -0.03,0.511 -0.026,0.765l-0.009,2.848c0,0.455 -0.05,0.793 -0.154,1.064c-0.122,0.303 -0.379,0.595 -0.631,0.868c-0.294,0.318 -0.548,0.556 -0.818,0.684c-0.267,0.13 -0.6,0.205 -1.05,0.238l-0.447,0.031c-0.341,0.022 -0.694,0.044 -1.052,0.084l-1.478,0.177c-0.252,0.029 -0.506,0.074 -0.764,0.12c-0.229,0.041 -0.462,0.085 -0.698,0.112c-0.232,0.028 -0.466,0.039 -0.706,0.05c-0.25,0.015 -0.504,0.028 -0.76,0.056c-0.249,0.025 -0.501,0.07 -0.753,0.117c-0.228,0.041 -0.456,0.086 -0.69,0.103c-0.215,0.018 -0.428,0.004 -0.643,-0.007c-0.272,-0.016 -0.542,-0.028 -0.819,-0.014c-0.246,0.012 -0.485,0.033 -0.72,0.055c-0.23,0.021 -0.457,0.041 -0.674,0.048c-0.331,0.012 -0.651,0.014 -0.96,0.016l-1.816,0.018c-0.242,0 -0.478,-0.016 -0.708,-0.03c-0.234,-0.015 -0.463,-0.027 -0.686,-0.031l-1.88,-0.008c-0.267,-0.006 -0.531,-0.01 -0.793,-0.01c-0.359,-0.003 -0.705,0.018 -1.061,0.043l-1.181,0.049c-0.263,0.004 -0.532,0.01 -0.807,0.024c-0.27,0.011 -0.543,0.054 -0.821,0.099c-0.204,0.034 -0.411,0.071 -0.624,0.082l-1.455,0.067c-0.209,0.013 -0.424,0.015 -0.639,0.019c-0.268,0.004 -0.54,0.008 -0.814,0.026c-0.212,0.013 -0.427,0.019 -0.645,0.025c-0.266,0.006 -0.538,0.012 -0.809,0.031c-0.264,0.019 -0.531,0.056 -0.798,0.093c-0.216,0.031 -0.431,0.063 -0.651,0.08c-0.212,0.016 -0.428,0.024 -0.646,0.031c-0.266,0.008 -0.534,0.018 -0.808,0.041c-0.25,0.022 -0.503,0.055 -0.759,0.088c-0.226,0.03 -0.456,0.061 -0.688,0.08c-0.258,0.024 -0.516,0.055 -0.776,0.088l-0.679,0.076c-0.215,0.022 -0.435,0.034 -0.655,0.045c-0.267,0.014 -0.536,0.03 -0.811,0.057c-0.209,0.022 -0.422,0.029 -0.638,0.037c-0.271,0.01 -0.544,0.022 -0.813,0.051c-0.35,0.033 -0.614,0.012 -0.804,-0.078c-0.229,-0.106 -0.433,-0.287 -0.607,-0.539c-0.151,-0.222 -0.327,-0.509 -0.343,-0.755l0,-0.002c-0.014,-0.242 -0.016,-0.493 -0.017,-0.755c-0.003,-0.32 -0.007,-0.652 -0.029,-0.991l-0.091,-1.505c-0.017,-0.25 -0.021,-0.493 -0.026,-0.73c-0.004,-0.265 -0.01,-0.523 -0.029,-0.771c-0.024,-0.325 -0.085,-0.636 -0.146,-0.931c-0.039,-0.187 -0.079,-0.364 -0.094,-0.536l-0.048,-0.73c-0.017,-0.265 -0.03,-0.519 -0.053,-0.757l-0.114,-1.481c-0.027,-0.295 -0.043,-0.568 -0.057,-0.828l-0.042,-0.64c-0.026,-0.311 -0.036,-0.607 -0.045,-0.903l-0.02,-0.542c-0.009,-0.178 -0.029,-0.366 -0.049,-0.565c-0.025,-0.234 -0.052,-0.485 -0.054,-0.75c-0.002,-0.208 0.011,-0.423 0.023,-0.644c0.013,-0.229 0.025,-0.463 0.028,-0.7l-0.003,-0.632c-0.001,-0.24 -0.004,-0.484 0,-0.724c0.006,-0.244 -0.003,-0.488 -0.012,-0.732c-0.008,-0.21 -0.016,-0.42 -0.01,-0.628c0.012,-0.399 0.096,-0.814 0.196,-1.277c0.091,-0.422 0.198,-0.864 0.358,-1.239c0.147,-0.347 0.361,-0.66 0.66,-1.108c0.212,-0.322 0.485,-0.623 0.827,-0.975l0.31,-0.333c0.207,-0.227 0.401,-0.443 0.597,-0.58c0.22,-0.154 0.511,-0.279 0.82,-0.411l0.341,-0.148c0.385,-0.173 0.795,-0.351 1.197,-0.446c0.383,-0.091 0.785,-0.102 1.274,-0.122c0.326,-0.015 0.645,-0.036 0.958,-0.058l1.533,-0.076c0.301,-0.009 0.591,-0.018 0.87,-0.034c0.354,-0.019 0.69,-0.065 1.012,-0.111c0.23,-0.032 0.45,-0.065 0.662,-0.078c0.079,-0.005 0.157,-0.007 0.235,-0.007c0.141,0 0.28,0.006 0.417,0.012c0.282,0.009 0.556,0.019 0.828,0.001c0.285,-0.021 0.563,-0.059 0.837,-0.097c0.211,-0.029 0.42,-0.06 0.627,-0.075l2.926,-0.224c0.269,-0.023 0.535,-0.062 0.801,-0.101c0.218,-0.032 0.437,-0.064 0.655,-0.084c0.222,-0.02 0.445,-0.028 0.671,-0.037c0.265,-0.011 0.531,-0.022 0.8,-0.046l1.461,-0.14c0.219,-0.02 0.441,-0.026 0.666,-0.034c0.261,-0.009 0.528,-0.019 0.8,-0.042c0.262,-0.024 0.524,-0.073 0.792,-0.124c0.217,-0.041 0.434,-0.085 0.662,-0.105c0.218,-0.018 0.442,-0.025 0.671,-0.033c0.262,-0.008 0.526,-0.018 0.796,-0.039c0.472,-0.041 0.966,-0.007 1.473,-0.047c0.27,-0.021 0.542,-0.074 0.818,-0.129c0.207,-0.042 0.42,-0.088 0.633,-0.105c0.549,-0.04 1.083,-0.007 1.611,-0.046c0.279,-0.019 0.554,-0.033 0.825,-0.046l0.775,-0.042c0.31,-0.021 0.613,-0.069 0.91,-0.118c0.227,-0.037 0.452,-0.075 0.676,-0.09c0.35,-0.021 0.736,0.011 1.251,0.111c0.34,0.064 0.712,0.198 1.175,0.42c0.33,0.158 0.646,0.425 1.003,0.725c0.381,0.322 0.665,0.572 0.919,0.934c0.244,0.348 0.477,0.678 0.596,1.009c0.077,0.211 0.096,0.511 0.116,0.83l0.158,1.753c0.024,0.266 0.08,0.531 0.139,0.796c0.041,0.183 0.086,0.366 0.101,0.552c0.014,0.186 0.002,0.375 -0.007,0.564c-0.014,0.269 -0.026,0.538 -0.006,0.808c0.019,0.258 0.066,0.517 0.113,0.775c0.037,0.193 0.076,0.386 0.088,0.581c0.016,0.234 0.021,0.47 0.029,0.706l0.026,0.669c0.011,0.231 0.013,0.461 0.013,0.692c0,0.254 0.002,0.509 0.016,0.757c0.012,0.246 0.033,0.489 0.055,0.732c0.021,0.232 0.043,0.465 0.05,0.696c0.01,0.244 0.028,0.488 0.043,0.731c0.018,0.236 0.034,0.471 0.041,0.701c0.008,0.202 -0.013,0.405 -0.033,0.605c-0.025,0.277 -0.049,0.555 -0.041,0.828c0.008,0.276 0.045,0.554 0.086,0.829c0.029,0.197 0.061,0.394 0.064,0.589c0.004,0.223 -0.009,0.443 -0.021,0.664m1.934,-1.544c-0.03,-0.195 -0.061,-0.391 -0.065,-0.593c-0.006,-0.195 0.014,-0.392 0.033,-0.59c0.026,-0.283 0.049,-0.568 0.041,-0.857c-0.009,-0.255 -0.027,-0.512 -0.045,-0.769l-0.039,-0.675c-0.011,-0.264 -0.035,-0.529 -0.058,-0.793c-0.02,-0.217 -0.039,-0.433 -0.051,-0.655c-0.012,-0.219 -0.012,-0.441 -0.012,-0.662c-0.002,-0.266 -0.002,-0.532 -0.017,-0.797l-0.024,-0.616c-0.008,-0.26 -0.015,-0.518 -0.031,-0.775c-0.018,-0.276 -0.066,-0.549 -0.117,-0.82c-0.035,-0.186 -0.07,-0.37 -0.084,-0.555c-0.014,-0.187 -0.002,-0.375 0.008,-0.563c0.013,-0.274 0.023,-0.548 0.004,-0.816c-0.024,-0.282 -0.082,-0.561 -0.145,-0.837c-0.039,-0.177 -0.082,-0.353 -0.098,-0.53l-0.153,-1.705c-0.027,-0.427 -0.057,-0.911 -0.234,-1.394c-0.209,-0.575 -0.543,-1.05 -0.882,-1.533c-0.373,-0.532 -0.844,-0.929 -1.243,-1.266c-0.397,-0.335 -0.845,-0.715 -1.406,-0.983c-0.62,-0.297 -1.149,-0.483 -1.66,-0.581c-0.431,-0.082 -1.083,-0.184 -1.76,-0.142c-0.286,0.019 -0.574,0.065 -0.869,0.113c-0.236,0.038 -0.478,0.079 -0.725,0.095l-0.731,0.04c-0.286,0.014 -0.579,0.029 -0.876,0.05c-0.522,0.038 -1.065,0.005 -1.615,0.046c-0.303,0.023 -0.596,0.08 -0.881,0.138c-0.196,0.039 -0.387,0.081 -0.577,0.096c-0.512,0.038 -1.001,0.008 -1.479,0.047c-0.238,0.019 -0.47,0.027 -0.699,0.034c-0.265,0.009 -0.525,0.017 -0.776,0.04c-0.297,0.024 -0.586,0.078 -0.869,0.133c-0.2,0.039 -0.396,0.077 -0.589,0.095c-0.234,0.02 -0.467,0.027 -0.692,0.035c-0.264,0.009 -0.526,0.018 -0.78,0.041l-1.461,0.141c-0.235,0.021 -0.468,0.03 -0.7,0.039c-0.258,0.011 -0.514,0.021 -0.769,0.044c-0.257,0.023 -0.512,0.06 -0.767,0.097c-0.227,0.034 -0.453,0.068 -0.681,0.087l-2.904,0.223c-0.248,0.018 -0.5,0.052 -0.756,0.088c-0.228,0.032 -0.461,0.066 -0.698,0.081c-0.198,0.013 -0.404,0.005 -0.614,-0.003c-0.278,-0.01 -0.564,-0.02 -0.853,-0.002c-0.261,0.016 -0.533,0.053 -0.817,0.093c-0.268,0.038 -0.549,0.079 -0.843,0.096c-0.263,0.014 -0.536,0.022 -0.818,0.03l-1.615,0.08c-0.294,0.02 -0.595,0.042 -0.984,0.058c-0.506,0.022 -1.03,0.044 -1.566,0.171c-0.574,0.136 -1.083,0.355 -1.559,0.569l-0.305,0.133c-0.371,0.158 -0.791,0.337 -1.183,0.612c-0.378,0.267 -0.671,0.589 -0.929,0.874l-0.262,0.282c-0.34,0.349 -0.73,0.764 -1.148,1.397c-0.254,0.379 -0.54,0.81 -0.748,1.3c-0.222,0.525 -0.357,1.077 -0.47,1.594c-0.117,0.54 -0.224,1.074 -0.241,1.642c-0.007,0.252 0.002,0.507 0.012,0.763c0.007,0.203 0.015,0.406 0.01,0.611c-0.006,0.265 -0.003,0.53 0.001,0.792l0.002,0.587c-0.002,0.207 -0.013,0.411 -0.025,0.61c-0.015,0.266 -0.028,0.524 -0.026,0.773c0.002,0.331 0.034,0.646 0.064,0.939c0.017,0.161 0.033,0.312 0.04,0.457l0.02,0.51c0.01,0.33 0.022,0.659 0.051,1.005l0.038,0.584c0.016,0.283 0.033,0.582 0.063,0.903l0.114,1.472c0.02,0.22 0.033,0.453 0.048,0.696l0.05,0.775c0.022,0.251 0.073,0.511 0.129,0.781c0.044,0.214 0.094,0.437 0.112,0.672c0.015,0.213 0.019,0.434 0.023,0.663c0.006,0.266 0.012,0.542 0.03,0.827l0.09,1.493c0.02,0.304 0.022,0.598 0.024,0.886c0.002,0.294 0.006,0.581 0.023,0.854c0.044,0.737 0.391,1.331 0.689,1.768c0.375,0.547 0.865,0.967 1.416,1.223c0.401,0.186 0.847,0.278 1.357,0.278c0.159,0 0.323,-0.01 0.494,-0.028c0.228,-0.025 0.455,-0.033 0.681,-0.041c0.258,-0.01 0.513,-0.019 0.762,-0.045c0.24,-0.025 0.48,-0.037 0.718,-0.05c0.247,-0.014 0.493,-0.028 0.737,-0.049c0.247,-0.024 0.492,-0.055 0.734,-0.084c0.239,-0.03 0.475,-0.059 0.707,-0.08c0.261,-0.024 0.518,-0.057 0.773,-0.09c0.225,-0.029 0.449,-0.059 0.667,-0.078c0.238,-0.02 0.474,-0.028 0.707,-0.035c0.248,-0.008 0.493,-0.017 0.735,-0.037c0.262,-0.019 0.519,-0.056 0.774,-0.091c0.221,-0.032 0.441,-0.063 0.659,-0.079c0.242,-0.017 0.48,-0.023 0.716,-0.029c0.247,-0.006 0.489,-0.012 0.732,-0.027c0.237,-0.016 0.474,-0.02 0.707,-0.022c0.249,-0.004 0.495,-0.007 0.733,-0.023l1.443,-0.066c0.286,-0.016 0.564,-0.059 0.838,-0.104c0.2,-0.033 0.396,-0.068 0.59,-0.078c0.255,-0.012 0.505,-0.016 0.751,-0.02l1.281,-0.054c0.261,-0.018 0.518,-0.036 0.781,-0.037c0.294,-0.002 0.596,0.001 0.898,0.009l1.889,0.008c0.195,0.002 0.393,0.016 0.594,0.027c0.268,0.016 0.54,0.032 0.821,0.034l1.84,-0.018c0.324,-0.002 0.66,-0.006 1.011,-0.016c0.256,-0.009 0.519,-0.033 0.789,-0.056c0.208,-0.02 0.421,-0.039 0.64,-0.051c0.201,-0.012 0.41,0.004 0.612,0.014c0.305,0.015 0.601,0.031 0.902,0.006c0.304,-0.024 0.605,-0.077 0.9,-0.131c0.199,-0.037 0.395,-0.075 0.59,-0.096c0.225,-0.021 0.446,-0.033 0.666,-0.045c0.279,-0.016 0.554,-0.029 0.828,-0.06c0.281,-0.034 0.555,-0.082 0.825,-0.13c0.217,-0.041 0.431,-0.08 0.64,-0.104l1.457,-0.176c0.332,-0.035 0.657,-0.056 0.97,-0.076l0.467,-0.031c0.704,-0.053 1.267,-0.19 1.766,-0.428c0.587,-0.282 1.028,-0.71 1.417,-1.13c0.367,-0.393 0.778,-0.866 1.026,-1.496c0.199,-0.511 0.293,-1.081 0.293,-1.79l0.01,-2.876c-0.002,-0.209 0.009,-0.418 0.021,-0.626c0.016,-0.273 0.031,-0.547 0.026,-0.82c-0.006,-0.278 -0.045,-0.558 -0.086,-0.839" style="fill-rule:nonzero;"/><path d="M25.792,22.114c-0.3,0.216 -0.614,0.425 -0.937,0.639l-0.268,0.179c-0.219,0.146 -0.424,0.316 -0.631,0.491c-0.17,0.144 -0.34,0.292 -0.532,0.412c-0.406,0.252 -0.83,0.499 -1.263,0.747c-0.232,0.135 -0.468,0.256 -0.7,0.377l-0.44,0.233c-0.185,0.098 -0.377,0.174 -0.567,0.253c-0.21,0.086 -0.418,0.173 -0.614,0.271c-0.071,0.035 -0.143,0.07 -0.215,0.106c-0.018,-0.088 -0.037,-0.176 -0.06,-0.266c-0.05,-0.203 -0.121,-0.409 -0.196,-0.62c-0.071,-0.197 -0.148,-0.403 -0.186,-0.621c-0.053,-0.299 -0.08,-0.617 -0.109,-0.942l-0.033,-0.355c-0.025,-0.241 -0.02,-0.49 -0.017,-0.745l-0.001,-0.554c-0.014,-0.578 -0.002,-1.125 0.033,-1.638l0.024,-0.37c0.006,-0.094 0.012,-0.187 0.018,-0.279c0.027,0.006 0.054,0.012 0.081,0.018c0.345,0.081 0.721,0.178 1.11,0.285c0.061,0.02 0.157,0.06 0.287,0.111c0.274,0.109 0.661,0.263 1.147,0.428c0.311,0.106 0.657,0.243 1.038,0.393l0.401,0.157c0.193,0.076 0.404,0.142 0.622,0.21c0.235,0.073 0.485,0.148 0.735,0.257c0.333,0.147 0.684,0.319 1.051,0.498l0.249,0.121c0.053,0.025 0.106,0.052 0.159,0.079c-0.063,0.04 -0.125,0.082 -0.186,0.125m2.244,-1.269l-0.501,-0.279c-0.287,-0.162 -0.564,-0.319 -0.841,-0.453l-0.248,-0.12c-0.394,-0.192 -0.768,-0.375 -1.126,-0.532c-0.322,-0.14 -0.642,-0.242 -0.944,-0.336c-0.17,-0.053 -0.336,-0.103 -0.488,-0.162l-0.394,-0.156c-0.414,-0.162 -0.789,-0.31 -1.127,-0.425c-0.446,-0.151 -0.802,-0.293 -1.053,-0.393c-0.228,-0.09 -0.393,-0.151 -0.483,-0.177c-0.427,-0.118 -0.83,-0.223 -1.198,-0.308c-0.298,-0.07 -0.591,-0.112 -0.859,-0.151l-1.383,-0.249l-0.165,1.01c-0.072,0.448 -0.106,0.946 -0.14,1.47l-0.024,0.359c-0.039,0.573 -0.052,1.181 -0.037,1.824l0.001,0.486c-0.004,0.329 -0.005,0.651 0.026,0.961l0.032,0.339c0.035,0.382 0.069,0.752 0.13,1.105c0.059,0.334 0.165,0.646 0.271,0.947c0.053,0.146 0.106,0.291 0.142,0.437c0.047,0.184 0.076,0.366 0.105,0.542c0.051,0.307 0.105,0.598 0.191,0.863l0.002,0c0.073,0.214 0.24,0.476 0.628,0.64l0.486,0.303l0.482,-0.307c0.397,-0.185 0.802,-0.375 1.214,-0.582c0.154,-0.075 0.315,-0.139 0.476,-0.206c0.254,-0.105 0.509,-0.211 0.757,-0.344l0.414,-0.218c0.258,-0.135 0.518,-0.27 0.774,-0.417c0.452,-0.26 0.896,-0.52 1.32,-0.784c0.276,-0.169 0.526,-0.376 0.772,-0.583c0.147,-0.127 0.291,-0.252 0.447,-0.355l0.265,-0.178c0.344,-0.225 0.678,-0.448 0.997,-0.677c0.168,-0.122 0.348,-0.224 0.523,-0.326c0.272,-0.156 0.535,-0.311 0.673,-0.429c0.457,-0.274 0.621,-0.802 0.584,-1.159c-0.011,-0.213 -0.111,-0.742 -0.701,-0.98" style="fill-rule:nonzero;"/></g></svg>